<svg
      version="1.1"
      id="Layer_1"
      xmlns="http://www.w3.org/2000/svg"
      xmlns:xlink="http://www.w3.org/1999/xlink"
      x="0px"
      y="0px"
      width="100%"
      viewBox="0 0 784 363"
      enable-background="new 0 0 784 363"
      xml:space="preserve"
    >
      <path
        fill="none"
        opacity="1.000000"
        stroke="none"
        d="
M488.000000,364.000000
	C325.333344,364.000000 163.166702,364.000000 1.000044,364.000000
	C1.000029,243.000031 1.000029,122.000069 1.000015,1.000076
	C262.333282,1.000051 523.666565,1.000051 784.999878,1.000025
	C784.999878,121.999916 784.999878,242.999832 784.999939,363.999878
	C686.166687,364.000000 587.333313,364.000000 488.000000,364.000000
M338.688202,120.242271
	C338.688202,120.242271 338.778412,120.281921 338.831146,120.843788
	C338.875397,121.217545 338.919647,121.591301 338.534607,122.386093
	C338.713501,123.241936 338.892365,124.097771 339.099854,125.537476
	C339.078247,125.731125 339.056641,125.924774 338.167908,126.137695
	C335.763031,126.137695 333.358124,126.137695 332.235657,126.137695
	C332.235657,120.808037 332.237976,116.227493 332.235229,111.646942
	C332.229279,101.761925 331.340027,100.892433 321.388489,101.050056
	C320.556915,101.063225 319.486969,100.802704 318.942322,101.215836
	C317.625977,102.214317 315.548187,103.525444 315.535278,104.729393
	C315.324615,124.365242 315.344574,144.004364 315.497192,163.641312
	C315.506256,164.807983 317.039001,166.935898 317.924530,166.969147
	C325.181366,167.241516 332.452881,167.122726 339.578613,167.122726
	C341.782196,153.512955 344.444855,150.537842 354.336578,150.028946
	C368.138641,149.318909 374.521576,141.030945 372.040009,126.207893
	C371.954010,125.768829 371.867981,125.329773 372.164276,124.232697
	C372.079926,123.512817 371.995605,122.792938 371.959290,121.417831
	C372.014526,120.983856 372.069794,120.549889 371.881287,119.328270
	C370.371918,118.885780 368.870056,118.095673 367.351837,118.062950
	C361.759094,117.942383 356.158356,117.982544 350.565613,118.139542
	C346.677917,118.248688 342.798370,118.648094 338.578674,119.124519
	C338.506744,119.234276 338.359558,119.358620 338.377472,119.450951
	C338.424744,119.694733 338.543610,119.924614 338.688202,120.242271
M503.992432,267.465363
	C503.672516,267.381104 503.352570,267.296844 502.113495,267.105286
	C497.187164,267.105286 492.260834,267.105286 486.681427,267.105286
	C488.163727,259.485046 489.630798,251.943054 491.177673,243.990891
	C496.729248,243.990891 501.879730,244.214188 506.987640,243.846268
	C508.403687,243.744247 510.416321,242.142288 510.896576,240.783585
	C512.043518,237.538864 512.440613,234.029099 513.593811,230.160828
	C513.394958,229.521378 513.196167,228.881927 512.144226,228.149582
	C500.531189,229.122101 488.928131,230.256882 477.299225,230.970840
	C473.689667,231.192444 472.565430,232.661621 471.974121,235.959549
	C467.834747,259.045502 463.505005,282.097290 459.266632,305.165588
	C458.111115,311.454773 457.059601,317.763031 455.856079,324.660400
	C470.368317,322.395905 484.034332,320.263458 497.947723,318.092407
	C497.590118,320.193604 497.347961,321.616516 497.018768,323.550873
	C502.963074,322.903900 508.527435,322.096802 514.120117,321.759979
	C517.885437,321.533203 519.737366,320.048981 520.342346,316.247864
	C520.887451,312.823181 522.359497,309.554474 523.042358,306.140869
	C523.694641,302.879669 525.377136,301.759705 528.579285,302.129333
	C530.664490,302.369995 532.799988,302.174652 535.492249,302.174652
	C534.795471,309.748901 534.162537,316.629181 533.480347,324.045471
	C540.944885,322.901581 547.938721,321.829773 555.150818,320.724548
	C556.636536,289.636780 558.108704,258.833038 559.574158,228.168762
	C548.289001,229.206238 537.347290,230.086929 526.453979,231.377731
	C525.145203,231.532791 523.496399,233.728806 523.022888,235.287964
	C515.630432,259.627960 508.411224,284.020538 501.129272,308.394196
	C500.654846,309.982086 499.994995,311.514618 499.421417,313.072876
	C499.108673,312.967285 498.795929,312.861694 498.483185,312.756073
	C498.663971,309.765900 498.844788,306.775726 499.045227,303.460480
	C492.588898,304.349304 486.745972,305.153687 480.314545,306.039062
	C481.526367,299.412842 482.977234,293.584351 483.551300,287.670715
	C484.006042,282.986145 485.946716,281.844879 490.441925,281.809113
	C503.727570,281.703461 503.725861,281.487183 503.992432,267.465363
M73.694069,319.586029
	C73.222603,322.103271 73.803665,323.400909 76.781960,322.754761
	C81.169487,321.802826 85.635651,321.210968 90.018547,320.240906
	C93.102837,319.558228 95.531181,319.662262 95.910561,323.542755
	C101.923645,322.872070 107.529495,322.129303 113.158356,321.666016
	C116.203613,321.415375 117.927422,320.340973 118.571190,317.111115
	C119.381218,313.047211 120.550919,309.016632 122.020920,305.144592
	C122.501717,303.878143 124.299683,302.555450 125.682709,302.308624
	C128.226425,301.854645 130.909073,302.179108 133.972961,302.179108
	C133.268311,309.758240 132.616638,316.767456 131.936218,324.085907
	C139.629913,322.875732 146.630203,321.774628 153.602554,320.677917
	C155.082565,289.473358 156.537613,258.795410 157.989899,228.175476
	C146.638916,229.219315 135.704468,230.098740 124.819069,231.391083
	C123.510056,231.546478 121.863808,233.757523 121.390350,235.323181
	C113.834473,260.309326 106.448776,285.346863 99.003159,310.366394
	C98.624016,311.640472 98.054428,312.857880 97.573517,314.101654
	C97.094719,313.992523 96.615913,313.883362 96.137108,313.774231
	C99.407753,284.616089 102.678398,255.457962 105.985748,225.972595
	C99.847443,226.864304 93.810181,228.135086 87.719475,228.490692
	C83.506821,228.736649 81.597725,230.622208 80.222382,234.253326
	C75.157906,247.624207 69.917572,260.928558 64.722794,274.249939
	C64.167900,275.672852 63.478207,277.043182 62.851051,278.437927
	C62.436413,278.312927 62.021774,278.187927 61.607136,278.062927
	C63.895828,262.103668 66.184517,246.144424 68.540413,229.716537
	C59.839352,230.433670 52.237434,231.244110 44.614349,231.595947
	C41.658966,231.732391 40.721756,233.005402 39.972725,235.547272
	C35.132275,251.973495 30.207909,268.375763 25.186182,284.747559
	C21.250099,297.579987 17.134008,310.357178 12.941594,323.654633
	C19.086025,323.268280 24.700661,322.773956 30.324728,322.616364
	C33.523376,322.526703 34.928230,321.127686 35.727074,318.104767
	C39.125156,305.245972 42.725693,292.440613 46.273731,279.621643
	C46.702419,278.072815 47.261204,276.559998 47.759697,275.030457
	C48.245804,275.157776 48.731915,275.285065 49.218021,275.412384
	C47.885170,291.241119 46.552322,307.069855 45.213776,322.966217
	C49.578087,322.966217 53.564381,323.259674 57.466793,322.815704
	C58.941818,322.647888 60.946415,321.050171 61.479908,319.639252
	C66.418770,306.577423 71.083275,293.411957 75.844917,280.282928
	C76.322517,278.966064 76.915184,277.690948 77.454445,276.396484
	C77.635262,276.463989 77.816086,276.531525 77.996902,276.599030
	C76.583450,290.647156 75.169998,304.695312 73.694069,319.586029
M726.499817,201.705704
	C739.999634,201.705719 753.499878,201.762253 766.998840,201.654083
	C769.449707,201.634430 771.996704,201.233505 774.300110,200.434341
	C775.446960,200.036423 776.924622,198.280457 776.847473,197.243317
	C776.748169,195.908218 775.463135,193.889740 774.293152,193.556946
	C771.311157,192.708755 768.109375,192.297760 764.995483,192.296936
	C566.329529,192.243744 367.663574,192.249054 168.997635,192.249069
	C119.997818,192.249069 70.997971,192.230026 21.998245,192.298111
	C19.217327,192.301971 16.327179,192.686615 13.706594,193.554489
	C12.514702,193.949188 11.250158,195.912628 11.152276,197.247604
	C11.076231,198.284760 12.581042,200.142670 13.692062,200.426392
	C16.707718,201.196518 19.887487,201.657562 23.002321,201.658249
	C257.168121,201.710205 491.333954,201.705719 726.499817,201.705704
M560.847717,305.207550
	C559.520691,311.644409 558.193665,318.081238 556.727844,325.191406
	C561.727661,324.024261 565.847534,322.713257 570.066101,322.172852
	C574.582336,321.594330 576.348389,319.409241 577.087280,314.986328
	C579.207214,302.296173 581.808350,289.686371 584.220337,277.044983
	C584.621948,277.038818 585.023560,277.032684 585.425232,277.026550
	C587.110352,292.512085 588.795471,307.997650 590.497559,323.639404
	C596.567932,322.263947 602.613220,321.088104 608.517273,319.414215
	C609.918457,319.016937 611.600952,317.093872 611.878967,315.630402
	C616.224609,292.754791 620.323425,269.832428 624.567871,246.937302
	C625.817871,240.194809 627.343201,233.503372 628.779114,226.611954
	C612.988770,227.525909 612.974304,227.522964 609.992981,242.114914
	C607.943665,252.145065 605.941345,262.184845 603.918091,272.220306
	C603.618469,272.217438 603.318848,272.214600 603.019287,272.211731
	C600.248047,257.717560 597.476868,243.223389 594.721191,228.810272
	C587.645447,228.810272 580.883423,228.810272 574.584106,228.810272
	C569.989197,254.322693 565.482666,279.344513 560.847717,305.207550
M687.200317,265.114685
	C684.899902,252.907242 682.599426,240.699799 680.381042,228.927704
	C672.951294,228.927704 666.215942,228.927704 660.237244,228.927704
	C654.415161,261.229706 648.711548,292.874420 642.916626,325.025391
	C648.113159,323.845947 652.896851,322.623016 657.739258,321.712646
	C660.633667,321.168457 661.768555,319.765137 662.245239,316.828461
	C663.656311,308.135406 665.445801,299.503326 667.118774,290.853455
	C667.967163,286.467285 668.883362,282.094177 669.768860,277.715179
	C670.235718,277.762451 670.702637,277.809723 671.169556,277.856995
	C672.803833,293.031342 674.438110,308.205688 676.098938,323.626343
	C682.022888,322.301758 687.624512,320.867981 693.301086,319.854462
	C696.259216,319.326263 697.286926,317.902313 697.810425,315.062592
	C702.963196,287.109283 708.266174,259.183655 713.503418,231.245834
	C713.784668,229.745377 713.857483,228.205826 714.048706,226.493027
	C711.468018,226.724030 709.645264,226.871155 707.825928,227.052734
	C698.733887,227.960114 698.681152,227.952072 696.740967,237.117783
	C694.322266,248.544113 692.002197,259.991302 689.639526,271.429474
	C689.348511,271.444031 689.057434,271.458618 688.766418,271.473175
	C688.304382,269.622314 687.842285,267.771484 687.200317,265.114685
M309.451935,293.857269
	C307.505737,303.871094 305.559540,313.884949 303.469055,324.641174
	C310.523895,322.852600 316.519714,321.491547 322.387268,319.708313
	C323.536041,319.359192 324.700073,317.482635 324.985443,316.127045
	C326.801361,307.501465 328.350189,298.819977 330.047729,290.168823
	C330.325836,288.751648 330.904510,287.393433 331.717468,284.832214
	C335.597137,298.199280 339.046661,310.084259 342.652344,322.507324
	C349.714020,319.978668 356.182556,317.662384 363.043335,315.205627
	C357.822144,302.824524 352.816132,290.953705 347.909760,279.319183
	C348.337585,278.785004 348.419098,278.623444 348.549408,278.530029
	C349.628693,277.756226 350.753967,277.042084 351.796844,276.222748
	C362.617523,267.721252 370.212219,257.375977 369.853546,242.906738
	C369.645874,234.527802 364.735565,228.862122 356.505920,229.184113
	C345.110687,229.629944 333.759369,231.435562 322.428619,232.952850
	C321.194855,233.118057 319.476257,235.089676 319.238037,236.444214
	C315.924438,255.285080 312.830109,274.164490 309.451935,293.857269
M744.219788,228.515503
	C730.752075,233.890289 720.969849,243.283615 714.726074,256.244232
	C705.952454,274.456146 702.989136,293.422668 709.945251,312.836639
	C714.512146,325.582550 726.408875,330.464233 739.222168,325.987976
	C757.493774,319.604919 773.029297,295.233398 771.453186,274.984802
	C761.438232,276.409851 751.438904,277.796844 741.460876,279.323395
	C740.696228,279.440369 739.646118,280.443512 739.473267,281.204071
	C738.685608,284.668640 738.164429,288.193787 737.447205,292.265656
	C742.364929,291.628662 746.406677,291.105133 750.877197,290.526093
	C750.820862,296.341858 748.510559,300.566559 744.683838,303.964752
	C741.354553,306.921234 737.566345,309.163391 732.887146,307.338928
	C728.305115,305.552307 726.998718,301.317505 727.120789,297.125153
	C727.313538,290.507629 727.782349,283.791840 729.167236,277.339355
	C731.448792,266.708862 735.352844,256.594604 742.222046,247.931732
	C747.927979,240.735733 753.073547,241.539673 756.370605,250.000488
	C756.715088,250.884552 757.232788,251.701111 757.697083,252.601212
	C762.697510,251.666870 767.480103,250.945847 772.150513,249.776749
	C773.289429,249.491653 774.899048,247.708588 774.864990,246.660690
	C774.632874,239.524353 772.424255,233.288239 765.746643,229.457199
	C758.999207,225.586151 752.031311,226.176849 744.219788,228.515503
M402.534027,163.946213
	C404.511292,165.316025 406.526398,167.785797 408.454254,167.719513
	C410.097961,167.662994 412.302307,164.945679 413.075256,162.947647
	C414.254944,159.898392 414.434998,156.458038 415.003815,153.177567
	C417.413818,139.279434 419.810638,125.379005 422.212250,111.479416
	C423.447083,113.398964 423.687256,115.295853 423.744354,117.198250
	C424.179321,131.688156 424.591125,146.178818 424.980286,160.670029
	C425.081085,164.422913 425.606018,167.891312 430.385803,168.088806
	C434.180939,168.245605 436.071838,165.639420 435.919006,160.356110
	C435.413086,142.867905 435.267670,125.352745 434.121704,107.904556
	C433.120667,92.662788 430.907349,77.502441 429.329071,62.295795
	C428.774445,56.952148 426.542542,53.015892 421.034058,51.812416
	C416.316498,50.781723 411.957336,53.714314 408.982300,59.580696
	C407.240051,63.016148 405.563690,66.485008 403.857697,69.938850
	C403.568268,69.828033 403.278809,69.717216 402.989380,69.606392
	C403.956635,63.488018 404.923889,57.369640 405.891144,51.251259
	C405.236603,51.132797 404.582092,51.014336 403.927551,50.895874
	C403.520416,52.167000 402.875214,53.413830 402.742645,54.712971
	C401.251160,69.329460 395.892426,83.165047 394.528778,97.881432
	C393.458008,109.437057 389.778900,120.744179 388.594147,132.298660
	C387.913391,138.937988 382.998505,142.215439 379.706482,146.250519
	C377.059753,149.494690 375.680176,151.706726 376.436462,155.568680
	C377.671814,161.877075 376.912689,163.098526 370.887421,165.111282
	C369.563477,165.553543 368.243378,166.007385 366.921509,166.455902
	C372.191284,167.178070 377.334259,167.178360 382.477203,167.178009
	C391.332611,167.177414 393.989441,165.254883 396.684113,156.774429
	C397.650177,153.734070 396.801758,151.493942 394.917755,148.629425
	C392.519806,144.983582 390.515350,139.984283 390.911194,135.812286
	C391.882629,125.573456 394.321503,115.473328 396.182159,105.319618
	C396.912262,101.335487 396.900024,97.113907 402.294464,95.769669
	C404.026917,95.337967 405.269104,92.780159 406.645538,91.120384
	C408.180481,89.269485 409.612854,87.333519 411.089905,85.434593
	C411.601898,85.594604 412.113861,85.754608 412.625854,85.914612
	C412.625854,91.471695 413.329224,97.136139 412.500397,102.566727
	C409.411346,122.806374 405.819336,142.969254 402.534027,163.946213
M192.714554,231.088272
	C183.109283,234.480652 174.607132,239.477875 168.380020,247.793442
	C162.085846,256.198547 162.411377,265.631409 169.657822,273.161072
	C172.637680,276.257416 176.319183,278.667145 179.561066,281.525787
	C182.918259,284.486115 186.613937,287.242920 189.288742,290.753693
	C193.117203,295.778656 190.680649,301.787354 184.468430,302.912933
	C181.718369,303.411194 178.392456,302.998260 175.851791,301.844971
	C172.198135,300.186462 169.022720,297.474365 165.463867,295.091949
	C162.962585,299.973816 160.609818,304.932648 157.906525,309.692413
	C156.483688,312.197662 156.996841,313.751709 158.821762,315.782318
	C166.308975,324.113373 175.565125,326.209564 186.070877,323.754395
	C198.306503,320.895020 207.080750,313.738922 210.985779,301.636963
	C215.497635,287.654419 210.768188,275.154022 198.588333,266.852478
	C195.725082,264.900940 192.709549,262.913116 190.515335,260.308990
	C188.071777,257.408936 187.853226,253.432922 190.747330,250.745255
	C192.985199,248.666992 196.430847,246.338104 199.078690,246.615036
	C203.077286,247.033203 202.805069,251.414917 202.875977,254.768784
	C202.889252,255.395950 202.946793,256.022186 203.017517,257.216248
	C208.735077,255.573425 214.122192,254.063751 219.474945,252.440735
	C220.167389,252.230774 220.886917,251.547745 221.247787,250.893082
	C225.135040,243.840988 220.209915,231.485687 212.156647,230.221680
	C206.124863,229.274933 199.735168,230.608505 192.714554,231.088272
M392.053162,302.374969
	C386.220551,302.939117 386.367371,298.518188 386.684692,295.074249
	C388.040131,280.361481 393.193268,266.964264 401.949524,255.053253
	C404.034393,252.217270 406.688293,249.960922 410.004028,254.086243
	C410.485748,254.685593 412.113739,254.747406 413.076019,254.509842
	C417.108459,253.514282 421.121033,252.406982 425.068298,251.118195
	C426.132935,250.770599 427.521667,249.796692 427.778137,248.845154
	C430.135956,240.097733 421.971802,229.235199 412.909424,228.888596
	C402.563019,228.492874 394.159912,232.823654 387.124207,239.983047
	C374.693298,252.632553 368.963989,268.371460 366.778809,285.607300
	C365.532013,295.441650 365.275482,305.236694 369.921509,314.443939
	C374.554443,323.625366 381.688202,326.786560 391.434967,323.447113
	C404.438049,318.991974 410.915985,308.322998 416.832245,296.523956
	C411.621552,294.338165 407.080444,292.433258 403.405945,290.891846
	C399.519958,295.013733 396.178711,298.557831 392.053162,302.374969
M301.411194,267.158569
	C297.797028,267.158569 294.182892,267.158569 290.115723,267.158569
	C291.363068,260.837891 292.811798,254.559875 293.766205,248.207581
	C294.237122,245.073654 295.419037,243.972412 298.564117,244.117020
	C303.529449,244.345352 308.513031,244.177780 313.707733,244.177780
	C314.999207,238.597672 316.163116,233.568756 317.439423,228.054260
	C304.681946,229.103638 292.773590,230.238449 280.840546,230.969376
	C277.297791,231.186356 276.082458,232.483139 275.489716,235.856750
	C272.123596,255.015213 268.519562,274.131866 265.002747,293.263855
	C263.121918,303.495941 261.253693,313.730316 259.241364,324.719696
	C273.801422,322.400848 287.526764,320.214935 301.507080,317.988403
	C301.908813,313.058563 302.279694,308.507202 302.693787,303.425568
	C296.176239,304.329468 290.213806,305.156372 283.743530,306.053711
	C285.294434,297.656738 286.704987,290.019592 288.241699,281.699402
	C294.131561,281.699402 299.879486,281.699402 305.826263,281.699402
	C306.538513,276.499023 307.155975,271.990906 307.818085,267.156921
	C305.613800,267.156921 303.971985,267.156921 301.411194,267.158569
M265.091248,248.692368
	C266.624573,247.923584 269.209961,247.443573 269.513611,246.337265
	C271.025208,240.830307 271.936462,235.158585 273.010315,229.788574
	C256.697876,230.403351 240.960236,230.996475 224.859497,231.603271
	C224.688156,234.325623 224.445450,237.291885 224.325394,240.263107
	C224.018295,247.864532 224.040970,247.847305 231.499863,248.201462
	C232.936829,248.269699 234.364120,248.541565 236.886307,248.855011
	C232.216537,274.213654 227.629868,299.120911 222.937881,324.600159
	C229.044144,323.668030 234.568924,322.533264 240.149673,322.063629
	C244.728683,321.678253 246.406815,319.785431 247.084763,315.152283
	C249.999496,295.232910 253.604294,275.414368 256.499878,255.492554
	C257.249695,250.333679 259.602203,248.632126 265.091248,248.692368
M444.673798,280.182465
	C448.467194,263.090088 452.260620,245.997696 456.188721,228.298508
	C449.440643,229.195801 443.550018,230.193359 437.617462,230.682358
	C434.392822,230.948151 433.172241,232.140442 432.589539,235.344482
	C428.513885,257.755798 424.147797,280.114136 420.027008,302.517487
	C418.718658,309.630432 417.873444,316.828522 416.868958,323.631104
	C429.859802,322.202972 442.195099,320.846893 455.009338,319.438171
	C454.510712,315.370117 453.955872,310.843292 453.355591,305.945618
	C448.773926,305.945618 444.512054,305.945618 439.737701,305.945618
	C441.364349,297.301666 442.898682,289.147980 444.673798,280.182465
M630.813049,241.214371
	C626.106628,268.707275 621.400208,296.200195 616.623535,324.103271
	C622.128601,323.460327 627.686951,322.544617 633.277588,322.259125
	C636.577332,322.090576 637.653992,321.066437 638.178528,317.725006
	C642.514099,290.104065 647.115784,262.524963 651.612610,234.929214
	C651.866272,233.372101 651.905090,231.779938 652.093262,229.643784
	C647.373413,230.380692 643.293335,231.564453 639.224426,231.527069
	C632.846130,231.468475 630.767578,234.676376 630.813049,241.214371
M240.499786,166.313934
	C260.227356,166.313934 279.954926,166.313934 299.620117,166.313934
	C299.620117,162.822739 299.620117,160.108307 299.620117,157.457947
	C252.385025,157.457947 205.545822,157.457947 158.731628,157.457947
	C158.731628,160.539352 158.731628,163.247284 158.731628,166.313934
	C185.938583,166.313934 212.719177,166.313934 240.499786,166.313934
M629.694702,160.675507
	C630.262329,156.653885 627.516541,157.084412 624.969910,157.085327
	C580.847595,157.101379 536.725281,157.094131 492.602936,157.109436
	C491.163666,157.109924 489.724426,157.294357 488.358704,157.388000
	C488.358704,160.546005 488.358704,163.279663 488.358704,166.098358
	C535.483032,166.098358 582.233337,166.098358 629.378845,166.098358
	C629.493469,164.464584 629.595093,163.016388 629.694702,160.675507
M468.275238,78.720535
	C467.490631,95.029610 466.568634,111.334030 466.015350,127.650948
	C465.871674,131.887680 464.306366,133.074265 460.326630,132.886917
	C454.584747,132.616623 448.820679,132.817795 442.512207,132.817795
	C443.213409,143.767426 443.739746,153.886536 444.671204,163.968246
	C444.779602,165.141266 447.074585,166.929321 448.452026,167.023331
	C453.760132,167.385590 459.118988,166.960632 464.435944,167.250702
	C468.283386,167.460602 469.748444,166.113144 469.891418,162.253998
	C470.205811,153.765991 470.900513,145.292465 471.382843,136.809784
	C471.446564,135.689392 471.325714,134.509079 471.029785,133.427826
	C470.392242,131.098648 468.865753,128.786453 468.958496,126.518684
	C469.905060,103.379799 471.119507,80.251968 472.199036,57.118240
	C472.277161,55.443520 471.886353,53.746914 471.713623,52.060482
	C471.091980,52.097832 470.470337,52.135181 469.848724,52.172531
	C469.344452,60.706585 468.840179,69.240639 468.275238,78.720535
M413.579559,48.116024
	C419.652283,50.466953 424.228302,49.749474 427.566772,45.733280
	C430.755066,41.897770 431.120209,37.595776 428.922272,33.198193
	C426.716125,28.784212 422.111053,26.842129 416.674744,27.807020
	C412.278870,28.587240 409.610016,31.395834 408.471466,35.515869
	C407.084290,40.535713 408.797729,44.621609 413.579559,48.116024
z"
      />
      <path
        fill="#FDFDFD"
        opacity="1.000000"
        stroke="none"
        d="
M73.725304,319.164734
	C75.169998,304.695312 76.583450,290.647156 77.996902,276.599030
	C77.816086,276.531525 77.635262,276.463989 77.454445,276.396484
	C76.915184,277.690948 76.322517,278.966064 75.844917,280.282928
	C71.083275,293.411957 66.418770,306.577423 61.479908,319.639252
	C60.946415,321.050171 58.941818,322.647888 57.466793,322.815704
	C53.564381,323.259674 49.578087,322.966217 45.213776,322.966217
	C46.552322,307.069855 47.885170,291.241119 49.218021,275.412384
	C48.731915,275.285065 48.245804,275.157776 47.759697,275.030457
	C47.261204,276.559998 46.702419,278.072815 46.273731,279.621643
	C42.725693,292.440613 39.125156,305.245972 35.727074,318.104767
	C34.928230,321.127686 33.523376,322.526703 30.324728,322.616364
	C24.700661,322.773956 19.086025,323.268280 12.941594,323.654633
	C17.134008,310.357178 21.250099,297.579987 25.186182,284.747559
	C30.207909,268.375763 35.132275,251.973495 39.972725,235.547272
	C40.721756,233.005402 41.658966,231.732391 44.614349,231.595947
	C52.237434,231.244110 59.839352,230.433670 68.540413,229.716537
	C66.184517,246.144424 63.895828,262.103668 61.607136,278.062927
	C62.021774,278.187927 62.436413,278.312927 62.851051,278.437927
	C63.478207,277.043182 64.167900,275.672852 64.722794,274.249939
	C69.917572,260.928558 75.157906,247.624207 80.222382,234.253326
	C81.597725,230.622208 83.506821,228.736649 87.719475,228.490692
	C93.810181,228.135086 99.847443,226.864304 105.985748,225.972595
	C102.678398,255.457962 99.407753,284.616089 96.137108,313.774231
	C96.615913,313.883362 97.094719,313.992523 97.573517,314.101654
	C98.054428,312.857880 98.624016,311.640472 99.003159,310.366394
	C106.448776,285.346863 113.834473,260.309326 121.390350,235.323181
	C121.863808,233.757523 123.510056,231.546478 124.819069,231.391083
	C135.704468,230.098740 146.638916,229.219315 157.989899,228.175476
	C156.537613,258.795410 155.082565,289.473358 153.602554,320.677917
	C146.630203,321.774628 139.629913,322.875732 131.936218,324.085907
	C132.616638,316.767456 133.268311,309.758240 133.972961,302.179108
	C130.909073,302.179108 128.226425,301.854645 125.682709,302.308624
	C124.299683,302.555450 122.501717,303.878143 122.020920,305.144592
	C120.550919,309.016632 119.381218,313.047211 118.571190,317.111115
	C117.927422,320.340973 116.203613,321.415375 113.158356,321.666016
	C107.529495,322.129303 101.923645,322.872070 95.910561,323.542755
	C95.531181,319.662262 93.102837,319.558228 90.018547,320.240906
	C85.635651,321.210968 81.169487,321.802826 76.781960,322.754761
	C73.803665,323.400909 73.222603,322.103271 73.725304,319.164734
M131.244110,266.656830
	C129.483139,273.965393 127.722153,281.273926 125.936836,288.683502
	C135.362839,289.204468 135.292679,289.198975 135.957108,280.715271
	C136.761246,270.447723 137.716980,260.192139 138.561111,249.927597
	C138.692581,248.328873 138.579483,246.710037 138.579483,245.100494
	C138.020172,245.042923 137.460846,244.985352 136.901535,244.927780
	C135.101791,251.909439 133.302048,258.891083 131.244110,266.656830
z"
      />
      <path
        fill="#F2F4F5"
        opacity="1.000000"
        stroke="none"
        d="
M725.999756,201.705688
	C491.333954,201.705719 257.168121,201.710205 23.002321,201.658249
	C19.887487,201.657562 16.707718,201.196518 13.692062,200.426392
	C12.581042,200.142670 11.076231,198.284760 11.152276,197.247604
	C11.250158,195.912628 12.514702,193.949188 13.706594,193.554489
	C16.327179,192.686615 19.217327,192.301971 21.998245,192.298111
	C70.997971,192.230026 119.997818,192.249069 168.997635,192.249069
	C367.663574,192.249054 566.329529,192.243744 764.995483,192.296936
	C768.109375,192.297760 771.311157,192.708755 774.293152,193.556946
	C775.463135,193.889740 776.748169,195.908218 776.847473,197.243317
	C776.924622,198.280457 775.446960,200.036423 774.300110,200.434341
	C771.996704,201.233505 769.449707,201.634430 766.998840,201.654083
	C753.499878,201.762253 739.999634,201.705719 725.999756,201.705688
z"
      />
      <path
        fill="#FDFDFD"
        opacity="1.000000"
        stroke="none"
        d="
M513.140442,230.626343
	C512.440613,234.029099 512.043518,237.538864 510.896576,240.783585
	C510.416321,242.142288 508.403687,243.744247 506.987640,243.846268
	C501.879730,244.214188 496.729248,243.990891 491.177673,243.990891
	C489.630798,251.943054 488.163727,259.485046 486.681427,267.105286
	C492.260834,267.105286 497.187164,267.105286 502.719910,267.299011
	C503.527954,267.673706 503.740051,267.841431 503.962677,267.995850
	C503.725861,281.487183 503.727570,281.703461 490.441925,281.809113
	C485.946716,281.844879 484.006042,282.986145 483.551300,287.670715
	C482.977234,293.584351 481.526367,299.412842 480.314545,306.039062
	C486.745972,305.153687 492.588898,304.349304 499.045227,303.460480
	C498.844788,306.775726 498.663971,309.765900 498.483185,312.756073
	C498.795929,312.861694 499.108673,312.967285 499.421417,313.072876
	C499.994995,311.514618 500.654846,309.982086 501.129272,308.394196
	C508.411224,284.020538 515.630432,259.627960 523.022888,235.287964
	C523.496399,233.728806 525.145203,231.532791 526.453979,231.377731
	C537.347290,230.086929 548.289001,229.206238 559.574158,228.168762
	C558.108704,258.833038 556.636536,289.636780 555.150818,320.724548
	C547.938721,321.829773 540.944885,322.901581 533.480347,324.045471
	C534.162537,316.629181 534.795471,309.748901 535.492249,302.174652
	C532.799988,302.174652 530.664490,302.369995 528.579285,302.129333
	C525.377136,301.759705 523.694641,302.879669 523.042358,306.140869
	C522.359497,309.554474 520.887451,312.823181 520.342346,316.247864
	C519.737366,320.048981 517.885437,321.533203 514.120117,321.759979
	C508.527435,322.096802 502.963074,322.903900 497.018768,323.550873
	C497.347961,321.616516 497.590118,320.193604 497.947723,318.092407
	C484.034332,320.263458 470.368317,322.395905 455.856079,324.660400
	C457.059601,317.763031 458.111115,311.454773 459.266632,305.165588
	C463.505005,282.097290 467.834747,259.045502 471.974121,235.959549
	C472.565430,232.661621 473.689667,231.192444 477.299225,230.970840
	C488.928131,230.256882 500.531189,229.122101 512.593140,228.592834
	C513.074890,229.566177 513.107666,230.096252 513.140442,230.626343
M539.882446,254.341309
	C539.882446,251.333054 539.882446,248.324783 539.882446,245.316528
	C539.378479,245.237640 538.874512,245.158768 538.370544,245.079895
	C534.729309,259.512299 531.088013,273.944733 527.431519,288.437378
	C536.431702,289.683075 536.474731,289.687439 537.303284,281.533844
	C538.192383,272.783356 538.989563,264.023468 539.882446,254.341309
z"
      />
      <path
        fill="#FDFDFD"
        opacity="1.000000"
        stroke="none"
        d="
M560.911926,304.786926
	C565.482666,279.344513 569.989197,254.322693 574.584106,228.810272
	C580.883423,228.810272 587.645447,228.810272 594.721191,228.810272
	C597.476868,243.223389 600.248047,257.717560 603.019287,272.211731
	C603.318848,272.214600 603.618469,272.217438 603.918091,272.220306
	C605.941345,262.184845 607.943665,252.145065 609.992981,242.114914
	C612.974304,227.522964 612.988770,227.525909 628.779114,226.611954
	C627.343201,233.503372 625.817871,240.194809 624.567871,246.937302
	C620.323425,269.832428 616.224609,292.754791 611.878967,315.630402
	C611.600952,317.093872 609.918457,319.016937 608.517273,319.414215
	C602.613220,321.088104 596.567932,322.263947 590.497559,323.639404
	C588.795471,307.997650 587.110352,292.512085 585.425232,277.026550
	C585.023560,277.032684 584.621948,277.038818 584.220337,277.044983
	C581.808350,289.686371 579.207214,302.296173 577.087280,314.986328
	C576.348389,319.409241 574.582336,321.594330 570.066101,322.172852
	C565.847534,322.713257 561.727661,324.024261 556.727844,325.191406
	C558.193665,318.081238 559.520691,311.644409 560.911926,304.786926
z"
      />
      <path
        fill="#FDFDFD"
        opacity="1.000000"
        stroke="none"
        d="
M687.290283,265.517639
	C687.842285,267.771484 688.304382,269.622314 688.766418,271.473175
	C689.057434,271.458618 689.348511,271.444031 689.639526,271.429474
	C692.002197,259.991302 694.322266,248.544113 696.740967,237.117783
	C698.681152,227.952072 698.733887,227.960114 707.825928,227.052734
	C709.645264,226.871155 711.468018,226.724030 714.048706,226.493027
	C713.857483,228.205826 713.784668,229.745377 713.503418,231.245834
	C708.266174,259.183655 702.963196,287.109283 697.810425,315.062592
	C697.286926,317.902313 696.259216,319.326263 693.301086,319.854462
	C687.624512,320.867981 682.022888,322.301758 676.098938,323.626343
	C674.438110,308.205688 672.803833,293.031342 671.169556,277.856995
	C670.702637,277.809723 670.235718,277.762451 669.768860,277.715179
	C668.883362,282.094177 667.967163,286.467285 667.118774,290.853455
	C665.445801,299.503326 663.656311,308.135406 662.245239,316.828461
	C661.768555,319.765137 660.633667,321.168457 657.739258,321.712646
	C652.896851,322.623016 648.113159,323.845947 642.916626,325.025391
	C648.711548,292.874420 654.415161,261.229706 660.237244,228.927704
	C666.215942,228.927704 672.951294,228.927704 680.381042,228.927704
	C682.599426,240.699799 684.899902,252.907242 687.290283,265.517639
z"
      />
      <path
        fill="#FDFDFD"
        opacity="1.000000"
        stroke="none"
        d="
M309.567078,293.445892
	C312.830109,274.164490 315.924438,255.285080 319.238037,236.444214
	C319.476257,235.089676 321.194855,233.118057 322.428619,232.952850
	C333.759369,231.435562 345.110687,229.629944 356.505920,229.184113
	C364.735565,228.862122 369.645874,234.527802 369.853546,242.906738
	C370.212219,257.375977 362.617523,267.721252 351.796844,276.222748
	C350.753967,277.042084 349.628693,277.756226 348.549408,278.530029
	C348.419098,278.623444 348.337585,278.785004 347.909760,279.319183
	C352.816132,290.953705 357.822144,302.824524 363.043335,315.205627
	C356.182556,317.662384 349.714020,319.978668 342.652344,322.507324
	C339.046661,310.084259 335.597137,298.199280 331.717468,284.832214
	C330.904510,287.393433 330.325836,288.751648 330.047729,290.168823
	C328.350189,298.819977 326.801361,307.501465 324.985443,316.127045
	C324.700073,317.482635 323.536041,319.359192 322.387268,319.708313
	C316.519714,321.491547 310.523895,322.852600 303.469055,324.641174
	C305.559540,313.884949 307.505737,303.871094 309.567078,293.445892
M349.067261,259.583160
	C350.351929,258.288818 351.919769,257.167175 352.843475,255.652679
	C353.812225,254.064240 355.127960,251.634201 354.540863,250.415665
	C353.800995,248.879959 351.373291,247.530365 349.519897,247.290741
	C345.829254,246.813614 342.033508,247.149460 338.250946,247.149460
	C336.871460,254.092621 335.592987,260.527588 334.314484,266.962524
	C334.708923,267.396057 335.103363,267.829559 335.497803,268.263062
	C339.837708,265.521973 344.177612,262.780853 349.067261,259.583160
z"
      />
      <path
        fill="#FDFDFD"
        opacity="1.000000"
        stroke="none"
        d="
M744.587402,228.366760
	C752.031311,226.176849 758.999207,225.586151 765.746643,229.457199
	C772.424255,233.288239 774.632874,239.524353 774.864990,246.660690
	C774.899048,247.708588 773.289429,249.491653 772.150513,249.776749
	C767.480103,250.945847 762.697510,251.666870 757.697083,252.601212
	C757.232788,251.701111 756.715088,250.884552 756.370605,250.000488
	C753.073547,241.539673 747.927979,240.735733 742.222046,247.931732
	C735.352844,256.594604 731.448792,266.708862 729.167236,277.339355
	C727.782349,283.791840 727.313538,290.507629 727.120789,297.125153
	C726.998718,301.317505 728.305115,305.552307 732.887146,307.338928
	C737.566345,309.163391 741.354553,306.921234 744.683838,303.964752
	C748.510559,300.566559 750.820862,296.341858 750.877197,290.526093
	C746.406677,291.105133 742.364929,291.628662 737.447205,292.265656
	C738.164429,288.193787 738.685608,284.668640 739.473267,281.204071
	C739.646118,280.443512 740.696228,279.440369 741.460876,279.323395
	C751.438904,277.796844 761.438232,276.409851 771.453186,274.984802
	C773.029297,295.233398 757.493774,319.604919 739.222168,325.987976
	C726.408875,330.464233 714.512146,325.582550 709.945251,312.836639
	C702.989136,293.422668 705.952454,274.456146 714.726074,256.244232
	C720.969849,243.283615 730.752075,233.890289 744.587402,228.366760
z"
      />
      <path
        fill="#E47919"
        opacity="1.000000"
        stroke="none"
        d="
M402.475067,163.553574
	C405.819336,142.969254 409.411346,122.806374 412.500397,102.566727
	C413.329224,97.136139 412.625854,91.471695 412.625854,85.914612
	C412.113861,85.754608 411.601898,85.594604 411.089905,85.434593
	C409.612854,87.333519 408.180481,89.269485 406.645538,91.120384
	C405.269104,92.780159 404.026917,95.337967 402.294464,95.769669
	C396.900024,97.113907 396.912262,101.335487 396.182159,105.319618
	C394.321503,115.473328 391.882629,125.573456 390.911194,135.812286
	C390.515350,139.984283 392.519806,144.983582 394.917755,148.629425
	C396.801758,151.493942 397.650177,153.734070 396.684113,156.774429
	C393.989441,165.254883 391.332611,167.177414 382.477203,167.178009
	C377.334259,167.178360 372.191284,167.178070 366.921509,166.455902
	C368.243378,166.007385 369.563477,165.553543 370.887421,165.111282
	C376.912689,163.098526 377.671814,161.877075 376.436462,155.568680
	C375.680176,151.706726 377.059753,149.494690 379.706482,146.250519
	C382.998505,142.215439 387.913391,138.937988 388.594147,132.298660
	C389.778900,120.744179 393.458008,109.437057 394.528778,97.881432
	C395.892426,83.165047 401.251160,69.329460 402.742645,54.712971
	C402.875214,53.413830 403.520416,52.167000 403.927551,50.895874
	C404.582092,51.014336 405.236603,51.132797 405.891144,51.251259
	C404.923889,57.369640 403.956635,63.488018 402.989380,69.606392
	C403.278809,69.717216 403.568268,69.828033 403.857697,69.938850
	C405.563690,66.485008 407.240051,63.016148 408.982300,59.580696
	C411.957336,53.714314 416.316498,50.781723 421.034058,51.812416
	C426.542542,53.015892 428.774445,56.952148 429.329071,62.295795
	C430.907349,77.502441 433.120667,92.662788 434.121704,107.904556
	C435.267670,125.352745 435.413086,142.867905 435.919006,160.356110
	C436.071838,165.639420 434.180939,168.245605 430.385803,168.088806
	C425.606018,167.891312 425.081085,164.422913 424.980286,160.670029
	C424.591125,146.178818 424.179321,131.688156 423.744354,117.198250
	C423.687256,115.295853 423.447083,113.398964 422.212250,111.479416
	C419.810638,125.379005 417.413818,139.279434 415.003815,153.177567
	C414.434998,156.458038 414.254944,159.898392 413.075256,162.947647
	C412.302307,164.945679 410.097961,167.662994 408.454254,167.719513
	C406.526398,167.785797 404.511292,165.316025 402.475067,163.553574
z"
      />
      <path
        fill="#FDFDFD"
        opacity="1.000000"
        stroke="none"
        d="
M193.109680,231.007523
	C199.735168,230.608505 206.124863,229.274933 212.156647,230.221680
	C220.209915,231.485687 225.135040,243.840988 221.247787,250.893082
	C220.886917,251.547745 220.167389,252.230774 219.474945,252.440735
	C214.122192,254.063751 208.735077,255.573425 203.017517,257.216248
	C202.946793,256.022186 202.889252,255.395950 202.875977,254.768784
	C202.805069,251.414917 203.077286,247.033203 199.078690,246.615036
	C196.430847,246.338104 192.985199,248.666992 190.747330,250.745255
	C187.853226,253.432922 188.071777,257.408936 190.515335,260.308990
	C192.709549,262.913116 195.725082,264.900940 198.588333,266.852478
	C210.768188,275.154022 215.497635,287.654419 210.985779,301.636963
	C207.080750,313.738922 198.306503,320.895020 186.070877,323.754395
	C175.565125,326.209564 166.308975,324.113373 158.821762,315.782318
	C156.996841,313.751709 156.483688,312.197662 157.906525,309.692413
	C160.609818,304.932648 162.962585,299.973816 165.463867,295.091949
	C169.022720,297.474365 172.198135,300.186462 175.851791,301.844971
	C178.392456,302.998260 181.718369,303.411194 184.468430,302.912933
	C190.680649,301.787354 193.117203,295.778656 189.288742,290.753693
	C186.613937,287.242920 182.918259,284.486115 179.561066,281.525787
	C176.319183,278.667145 172.637680,276.257416 169.657822,273.161072
	C162.411377,265.631409 162.085846,256.198547 168.380020,247.793442
	C174.607132,239.477875 183.109283,234.480652 193.109680,231.007523
z"
      />
      <path
        fill="#FDFDFD"
        opacity="1.000000"
        stroke="none"
        d="
M392.445312,302.238434
	C396.178711,298.557831 399.519958,295.013733 403.405945,290.891846
	C407.080444,292.433258 411.621552,294.338165 416.832245,296.523956
	C410.915985,308.322998 404.438049,318.991974 391.434967,323.447113
	C381.688202,326.786560 374.554443,323.625366 369.921509,314.443939
	C365.275482,305.236694 365.532013,295.441650 366.778809,285.607300
	C368.963989,268.371460 374.693298,252.632553 387.124207,239.983047
	C394.159912,232.823654 402.563019,228.492874 412.909424,228.888596
	C421.971802,229.235199 430.135956,240.097733 427.778137,248.845154
	C427.521667,249.796692 426.132935,250.770599 425.068298,251.118195
	C421.121033,252.406982 417.108459,253.514282 413.076019,254.509842
	C412.113739,254.747406 410.485748,254.685593 410.004028,254.086243
	C406.688293,249.960922 404.034393,252.217270 401.949524,255.053253
	C393.193268,266.964264 388.040131,280.361481 386.684692,295.074249
	C386.367371,298.518188 386.220551,302.939117 392.445312,302.238434
z"
      />
      <path
        fill="#FCFDFD"
        opacity="1.000000"
        stroke="none"
        d="
M301.870667,267.157745
	C303.971985,267.156921 305.613800,267.156921 307.818085,267.156921
	C307.155975,271.990906 306.538513,276.499023 305.826263,281.699402
	C299.879486,281.699402 294.131561,281.699402 288.241699,281.699402
	C286.704987,290.019592 285.294434,297.656738 283.743530,306.053711
	C290.213806,305.156372 296.176239,304.329468 302.693787,303.425568
	C302.279694,308.507202 301.908813,313.058563 301.507080,317.988403
	C287.526764,320.214935 273.801422,322.400848 259.241364,324.719696
	C261.253693,313.730316 263.121918,303.495941 265.002747,293.263855
	C268.519562,274.131866 272.123596,255.015213 275.489716,235.856750
	C276.082458,232.483139 277.297791,231.186356 280.840546,230.969376
	C292.773590,230.238449 304.681946,229.103638 317.439423,228.054260
	C316.163116,233.568756 314.999207,238.597672 313.707733,244.177780
	C308.513031,244.177780 303.529449,244.345352 298.564117,244.117020
	C295.419037,243.972412 294.237122,245.073654 293.766205,248.207581
	C292.811798,254.559875 291.363068,260.837891 290.115723,267.158569
	C294.182892,267.158569 297.797028,267.158569 301.870667,267.157745
z"
      />
      <path
        fill="#FDFDFD"
        opacity="1.000000"
        stroke="none"
        d="
M264.674591,248.740433
	C259.602203,248.632126 257.249695,250.333679 256.499878,255.492554
	C253.604294,275.414368 249.999496,295.232910 247.084763,315.152283
	C246.406815,319.785431 244.728683,321.678253 240.149673,322.063629
	C234.568924,322.533264 229.044144,323.668030 222.937881,324.600159
	C227.629868,299.120911 232.216537,274.213654 236.886307,248.855011
	C234.364120,248.541565 232.936829,248.269699 231.499863,248.201462
	C224.040970,247.847305 224.018295,247.864532 224.325394,240.263107
	C224.445450,237.291885 224.688156,234.325623 224.859497,231.603271
	C240.960236,230.996475 256.697876,230.403351 273.010315,229.788574
	C271.936462,235.158585 271.025208,240.830307 269.513611,246.337265
	C269.209961,247.443573 266.624573,247.923584 264.674591,248.740433
z"
      />
      <path
        fill="#FDFDFD"
        opacity="1.000000"
        stroke="none"
        d="
M444.553406,280.588379
	C442.898682,289.147980 441.364349,297.301666 439.737701,305.945618
	C444.512054,305.945618 448.773926,305.945618 453.355591,305.945618
	C453.955872,310.843292 454.510712,315.370117 455.009338,319.438171
	C442.195099,320.846893 429.859802,322.202972 416.868958,323.631104
	C417.873444,316.828522 418.718658,309.630432 420.027008,302.517487
	C424.147797,280.114136 428.513885,257.755798 432.589539,235.344482
	C433.172241,232.140442 434.392822,230.948151 437.617462,230.682358
	C443.550018,230.193359 449.440643,229.195801 456.188721,228.298508
	C452.260620,245.997696 448.467194,263.090088 444.553406,280.588379
z"
      />
      <path
        fill="#E47919"
        opacity="1.000000"
        stroke="none"
        d="
M372.171234,126.871414
	C374.521576,141.030945 368.138641,149.318909 354.336578,150.028946
	C344.444855,150.537842 341.782196,153.512955 339.578613,167.122726
	C332.452881,167.122726 325.181366,167.241516 317.924530,166.969147
	C317.039001,166.935898 315.506256,164.807983 315.497192,163.641312
	C315.344574,144.004364 315.324615,124.365242 315.535278,104.729393
	C315.548187,103.525444 317.625977,102.214317 318.942322,101.215836
	C319.486969,100.802704 320.556915,101.063225 321.388489,101.050056
	C331.340027,100.892433 332.229279,101.761925 332.235229,111.646942
	C332.237976,116.227493 332.235657,120.808037 332.235657,126.137695
	C333.358124,126.137695 335.763031,126.137695 338.975037,126.290192
	C350.578522,126.585602 361.374878,126.728508 372.171234,126.871414
M324.215698,156.233170
	C333.976196,151.314865 331.027435,161.889801 334.751495,165.087265
	C335.120392,160.075760 334.021881,156.028885 329.951202,153.558380
	C327.107544,151.832550 324.510712,152.966629 322.194305,156.237152
	C321.349640,158.927399 320.505005,161.617630 319.660339,164.307861
	C320.112274,164.408554 320.564209,164.509247 321.016144,164.609940
	C321.904297,161.994995 322.792450,159.380051 324.215698,156.233170
z"
      />
      <path
        fill="#FDFDFD"
        opacity="1.000000"
        stroke="none"
        d="
M630.866882,240.789062
	C630.767578,234.676376 632.846130,231.468475 639.224426,231.527069
	C643.293335,231.564453 647.373413,230.380692 652.093262,229.643784
	C651.905090,231.779938 651.866272,233.372101 651.612610,234.929214
	C647.115784,262.524963 642.514099,290.104065 638.178528,317.725006
	C637.653992,321.066437 636.577332,322.090576 633.277588,322.259125
	C627.686951,322.544617 622.128601,323.460327 616.623535,324.103271
	C621.400208,296.200195 626.106628,268.707275 630.866882,240.789062
z"
      />
      <path
        fill="#FBFCFC"
        opacity="1.000000"
        stroke="none"
        d="
M239.999786,166.313934
	C212.719177,166.313934 185.938583,166.313934 158.731628,166.313934
	C158.731628,163.247284 158.731628,160.539352 158.731628,157.457947
	C205.545822,157.457947 252.385025,157.457947 299.620117,157.457947
	C299.620117,160.108307 299.620117,162.822739 299.620117,166.313934
	C279.954926,166.313934 260.227356,166.313934 239.999786,166.313934
z"
      />
      <path
        fill="#FBFCFC"
        opacity="1.000000"
        stroke="none"
        d="
M629.695679,161.121841
	C629.595093,163.016388 629.493469,164.464584 629.378845,166.098358
	C582.233337,166.098358 535.483032,166.098358 488.358704,166.098358
	C488.358704,163.279663 488.358704,160.546005 488.358704,157.388000
	C489.724426,157.294357 491.163666,157.109924 492.602936,157.109436
	C536.725281,157.094131 580.847595,157.101379 624.969910,157.085327
	C627.516541,157.084412 630.262329,156.653885 629.695679,161.121841
z"
      />
      <path
        fill="#E4791A"
        opacity="1.000000"
        stroke="none"
        d="
M468.305573,78.247620
	C468.840179,69.240639 469.344452,60.706585 469.848724,52.172531
	C470.470337,52.135181 471.091980,52.097832 471.713623,52.060482
	C471.886353,53.746914 472.277161,55.443520 472.199036,57.118240
	C471.119507,80.251968 469.905060,103.379799 468.958496,126.518684
	C468.865753,128.786453 470.392242,131.098648 471.029785,133.427826
	C471.325714,134.509079 471.446564,135.689392 471.382843,136.809784
	C470.900513,145.292465 470.205811,153.765991 469.891418,162.253998
	C469.748444,166.113144 468.283386,167.460602 464.435944,167.250702
	C459.118988,166.960632 453.760132,167.385590 448.452026,167.023331
	C447.074585,166.929321 444.779602,165.141266 444.671204,163.968246
	C443.739746,153.886536 443.213409,143.767426 442.512207,132.817795
	C448.820679,132.817795 454.584747,132.616623 460.326630,132.886917
	C464.306366,133.074265 465.871674,131.887680 466.015350,127.650948
	C466.568634,111.334030 467.490631,95.029610 468.305573,78.247620
z"
      />
      <path
        fill="#E3791A"
        opacity="1.000000"
        stroke="none"
        d="
M413.258057,47.918709
	C408.797729,44.621609 407.084290,40.535713 408.471466,35.515869
	C409.610016,31.395834 412.278870,28.587240 416.674744,27.807020
	C422.111053,26.842129 426.716125,28.784212 428.922272,33.198193
	C431.120209,37.595776 430.755066,41.897770 427.566772,45.733280
	C424.228302,49.749474 419.652283,50.466953 413.258057,47.918709
z"
      />
      <path
        fill="#E47919"
        opacity="1.000000"
        stroke="none"
        d="
M339.071259,124.953613
	C338.892365,124.097771 338.713501,123.241936 339.219666,122.144432
	C350.573578,121.959534 361.242401,122.016296 371.911255,122.073059
	C371.995605,122.792938 372.079926,123.512817 371.519104,124.566429
	C360.273071,124.917984 349.672150,124.935799 339.071259,124.953613
z"
      />
      <path
        fill="#B8783B"
        opacity="1.000000"
        stroke="none"
        d="
M339.085571,125.245544
	C349.672150,124.935799 360.273071,124.917984 371.327972,124.895439
	C371.867981,125.329773 371.954010,125.768829 372.105621,126.539658
	C361.374878,126.728508 350.578522,126.585602 339.408600,126.280563
	C339.056641,125.924774 339.078247,125.731125 339.085571,125.245544
z"
      />
      <path
        fill="#D87923"
        opacity="1.000000"
        stroke="none"
        d="
M338.915161,118.917831
	C342.798370,118.648094 346.677917,118.248688 350.565613,118.139542
	C356.158356,117.982544 361.759094,117.942383 367.351837,118.062950
	C368.870056,118.095673 370.371918,118.885780 371.525391,119.689941
	C360.372467,120.128387 349.575439,120.205154 338.778412,120.281921
	C338.778412,120.281921 338.688202,120.242271 338.730530,119.889969
	C338.820282,119.331062 338.867706,119.124443 338.915161,118.917831
z"
      />
      <path
        fill="#A57749"
        opacity="1.000000"
        stroke="none"
        d="
M338.804779,120.562851
	C349.575439,120.205154 360.372467,120.128387 371.647278,120.083763
	C372.069794,120.549889 372.014526,120.983856 371.935272,121.745445
	C361.242401,122.016296 350.573578,121.959534 339.434326,121.933914
	C338.919647,121.591301 338.875397,121.217545 338.804779,120.562851
z"
      />
      <path
        fill="#FCFDFD"
        opacity="1.000000"
        stroke="none"
        d="
M513.367126,230.393585
	C513.107666,230.096252 513.074890,229.566177 513.019714,228.639282
	C513.196167,228.881927 513.394958,229.521378 513.367126,230.393585
z"
      />
      <path
        fill="#FCFDFD"
        opacity="1.000000"
        stroke="none"
        d="
M503.977539,267.730591
	C503.740051,267.841431 503.527954,267.673706 503.179504,267.352661
	C503.352570,267.296844 503.672516,267.381104 503.977539,267.730591
z"
      />
      <path
        fill="#A57749"
        opacity="1.000000"
        stroke="none"
        d="
M338.746918,119.021172
	C338.867706,119.124443 338.820282,119.331062 338.703430,119.848846
	C338.543610,119.924614 338.424744,119.694733 338.377472,119.450951
	C338.359558,119.358620 338.506744,119.234276 338.746918,119.021172
z"
      />
      <path
        fill=""
        opacity="1.000000"
        stroke="none"
        d="
M131.373199,266.264771
	C133.302048,258.891083 135.101791,251.909439 136.901535,244.927780
	C137.460846,244.985352 138.020172,245.042923 138.579483,245.100494
	C138.579483,246.710037 138.692581,248.328873 138.561111,249.927597
	C137.716980,260.192139 136.761246,270.447723 135.957108,280.715271
	C135.292679,289.198975 135.362839,289.204468 125.936836,288.683502
	C127.722153,281.273926 129.483139,273.965393 131.373199,266.264771
z"
      />
      <path
        fill=""
        opacity="1.000000"
        stroke="none"
        d="
M539.854675,254.804504
	C538.989563,264.023468 538.192383,272.783356 537.303284,281.533844
	C536.474731,289.687439 536.431702,289.683075 527.431519,288.437378
	C531.088013,273.944733 534.729309,259.512299 538.370544,245.079895
	C538.874512,245.158768 539.378479,245.237640 539.882446,245.316528
	C539.882446,248.324783 539.882446,251.333054 539.854675,254.804504
z"
      />
      <path
        fill=""
        opacity="1.000000"
        stroke="none"
        d="
M348.792389,259.811462
	C344.177612,262.780853 339.837708,265.521973 335.497803,268.263062
	C335.103363,267.829559 334.708923,267.396057 334.314484,266.962524
	C335.592987,260.527588 336.871460,254.092621 338.250946,247.149460
	C342.033508,247.149460 345.829254,246.813614 349.519897,247.290741
	C351.373291,247.530365 353.800995,248.879959 354.540863,250.415665
	C355.127960,251.634201 353.812225,254.064240 352.843475,255.652679
	C351.919769,257.167175 350.351929,258.288818 348.792389,259.811462
z"
      />
      <path
        fill="#7E7868"
        opacity="1.000000"
        stroke="none"
        d="
M322.697479,155.729446
	C324.510712,152.966629 327.107544,151.832550 329.951202,153.558380
	C334.021881,156.028885 335.120392,160.075760 334.751495,165.087265
	C331.027435,161.889801 333.976196,151.314865 323.704773,156.237961
	C323.028381,156.071655 322.862915,155.900543 322.697479,155.729446
z"
      />
      <path
        fill="#7E7868"
        opacity="1.000000"
        stroke="none"
        d="
M323.437195,156.503937
	C322.792450,159.380051 321.904297,161.994995 321.016144,164.609940
	C320.564209,164.509247 320.112274,164.408554 319.660339,164.307861
	C320.505005,161.617630 321.349640,158.927399 322.445892,155.983307
	C322.862915,155.900543 323.028381,156.071655 323.437195,156.503937
z"
      />
    </svg>
